<svg width="20" height="20" viewBox="0 0 20 20" fill="none" xmlns="http://www.w3.org/2000/svg">
<path fill-rule="evenodd" clip-rule="evenodd" d="M17.1334 4.10641C17.6222 4.59516 17.6222 5.38766 17.1334 5.87641L16.2322 6.77766L15.3478 5.89391L16.249 4.99266L13.7572 2.50078L12.8559 3.40203L11.9722 2.51828L12.8734 1.61703C13.3622 1.12766 14.1547 1.12766 14.6434 1.61703L17.1334 4.10641ZM4.76313 11.8286L6.92188 13.9867L4.14626 14.6036L4.76313 11.8286ZM7.97251 13.2698L5.48001 10.7773L11.0875 5.16984L13.58 7.66172L7.97251 13.2698ZM15.3481 7.66172L14.4637 6.77797L11.0912 3.40422L11.0881 3.40234L3.71687 10.773L2.5 16.2498L7.97687 15.033L15.3481 7.66172ZM17.5 18.75H2.5V17.5H17.5V18.75Z" fill="#686868"/>
</svg>
